<svg xmlns="http://www.w3.org/2000/svg" width="30" height="30" viewBox="0 0 30 30">
  <g id="Job_Offer_Inverted_Icon" data-name="Job Offer Inverted Icon" transform="translate(-885 -106)">
    <rect id="Rectangle_797" data-name="Rectangle 797" width="30" height="30" rx="5" transform="translate(885 106)" fill="#229bff"/>
    <g id="Group_2355" data-name="Group 2355" transform="translate(889.75 110.986)">
      <path id="Path_41" data-name="Path 41" d="M10.25,2.014a9.995,9.995,0,0,0-7.137,17,15.984,15.984,0,0,1,7.137-1.653,15.984,15.984,0,0,1,7.137,1.653,9.995,9.995,0,0,0-7.137-17ZM9.584,3.469a.335.335,0,0,1,.333-.334h.667a.335.335,0,0,1,.333.334V4.8a.334.334,0,0,1-.333.333H9.916A.334.334,0,0,1,9.584,4.8ZM3.373,12.347a.334.334,0,0,1-.334.334H1.705a.334.334,0,0,1-.333-.334V11.68a.334.334,0,0,1,.333-.334H3.039a.334.334,0,0,1,.334.334Zm2.25-5.432-.471.471a.333.333,0,0,1-.471,0l-.943-.943a.334.334,0,0,1,0-.471L4.208,5.5a.333.333,0,0,1,.471,0l.943.942A.335.335,0,0,1,5.623,6.914Zm6.236,5.572a.355.355,0,0,1-.037.059c-.012.036-.017.071-.031.106l0,0a1.668,1.668,0,0,1-.156.29c-.03.044-.067.081-.1.122s-.066.088-.106.127-.086.071-.129.106-.078.07-.122.1-.075.04-.111.06a1.608,1.608,0,0,1-.174.092c-.031.013-.065.019-.1.03a1.615,1.615,0,0,1-.255.07,1.647,1.647,0,0,1-.283.028H10.25c-.046,0-.089-.01-.135-.014a1.728,1.728,0,0,1-.186-.019,1.641,1.641,0,0,1-.3-.091l-.013,0h0a1.664,1.664,0,0,1-.545-.366c-.024-.025-.043-.053-.065-.078a1.785,1.785,0,0,1-.14-.172c-.014-.022-.024-.047-.037-.07a1.623,1.623,0,0,1-.114-.215c0-.01-.006-.022-.01-.032a1.647,1.647,0,0,1-.091-.338,1.788,1.788,0,0,1-.026-.262v-.005c0-.043.009-.082.012-.123a1.593,1.593,0,0,1,.02-.2,1.691,1.691,0,0,1,.082-.273c.006-.014.008-.028.013-.042v0c.015-.036.036-.066.053-.1a.309.309,0,0,1,.015-.063c.243-.588,4.043-5.407,4.043-5.407S12.1,11.9,11.859,12.486Zm4.9-6.043-.943.943a.333.333,0,0,1-.471,0l-.471-.471a.335.335,0,0,1,0-.471L15.82,5.5a.333.333,0,0,1,.471,0l.471.471A.334.334,0,0,1,16.763,6.443Zm2.031,6.237H17.461a.334.334,0,0,1-.334-.334V11.68a.334.334,0,0,1,.334-.334h1.334a.334.334,0,0,1,.333.334v.666A.334.334,0,0,1,18.795,12.68Z" fill="#fff"/>
    </g>
  </g>
</svg>
