<svg xmlns="http://www.w3.org/2000/svg" width="23.479" height="25" viewBox="0 0 23.479 25">
  <path id="Path_2888" data-name="Path 2888" d="M23.962,9.014a.938.938,0,0,0-.672-.282h0a.94.94,0,0,0-.672.282L10.26,21.525a4.716,4.716,0,0,1-3.34,1.553h0a4.245,4.245,0,0,1-2.986-1.284A4.378,4.378,0,0,1,4.2,15.383C5.962,13.6,13.028,6.445,16.554,2.872a2.542,2.542,0,0,1,4.45,1,2.724,2.724,0,0,1-.855,2.644L8.331,18.478a1.982,1.982,0,0,1-1.106.638.6.6,0,0,1-.508-.147c-.279-.284-.2-.931.479-1.62l8.3-8.406a.973.973,0,0,0,0-1.359.94.94,0,0,0-.673-.282h0a.936.936,0,0,0-.672.282l-8.3,8.4c-1.562,1.58-1.423,3.379-.479,4.339a2.5,2.5,0,0,0,2.053.7,3.774,3.774,0,0,0,2.251-1.191L21.494,7.871a4.651,4.651,0,0,0,1.346-4.5A4.6,4.6,0,0,0,19.657.147,4.515,4.515,0,0,0,15.21,1.511L2.853,14.022a6.3,6.3,0,0,0-.264,9.13A6.157,6.157,0,0,0,6.925,25h0A6.551,6.551,0,0,0,11.6,22.885L23.962,10.374A.973.973,0,0,0,23.962,9.014Z" transform="translate(-0.761)" fill="#229bff"/>
</svg>
