<svg id="Sent_Job_Offer_Inverted_Icon" data-name="Sent Job Offer Inverted Icon" xmlns="http://www.w3.org/2000/svg" width="30" height="30" viewBox="0 0 30 30">
  <rect id="Rectangle_797" data-name="Rectangle 797" width="30" height="30" rx="5" fill="#229bff"/>
  <g id="Group_1988" data-name="Group 1988" transform="translate(6 5)">
    <path id="Path_3000" data-name="Path 3000" d="M7.9,16.646V12.713a1.639,1.639,0,0,1,1.637-1.637h3.99V9.585A1.387,1.387,0,0,1,14.1,8.41V3.166A.763.763,0,0,0,13.34,2.4H9.455a2.4,2.4,0,1,0-4.808,0H.762A.763.763,0,0,0,0,3.166V17.491a.763.763,0,0,0,.762.762H9.245A1.638,1.638,0,0,1,7.9,16.646ZM7.051,1.318A1.086,1.086,0,1,1,5.965,2.4,1.086,1.086,0,0,1,7.051,1.318ZM3.03,5.852h8.042a.6.6,0,0,1,0,1.2H3.03a.6.6,0,1,1,0-1.2Zm0,3.366h5.6a.6.6,0,1,1,0,1.2H3.03a.6.6,0,0,1,0-1.2Zm3.2,4.565H3.03a.6.6,0,0,1,0-1.2h3.2a.6.6,0,0,1,0,1.2Z" fill="#fff"/>
    <path id="Path_3001" data-name="Path 3001" d="M17.008,14.18a.438.438,0,0,1-.437.437H11.818a.438.438,0,0,0-.437.437v3.933a.438.438,0,0,0,.437.437h4.754a.438.438,0,0,1,.437.437v2.255c0,.241.138.3.306.126l4.835-4.91a.446.446,0,0,0,0-.622L17.315,11.8c-.169-.171-.306-.115-.306.126Z" transform="translate(-2.276 -2.34)" fill="#fff"/>
  </g>
</svg>
