<svg xmlns="http://www.w3.org/2000/svg" width="35" height="35" viewBox="0 0 35 35">
  <g id="Job_Offer_To_Be_Re-awarded_Icon" data-name="Job Offer To Be Re-awarded Icon" transform="translate(-0.459)">
    <rect id="Rectangle_777" data-name="Rectangle 777" width="35" height="35" rx="10" transform="translate(0.459)" fill="#d50000"/>
    <path id="Path_2974" data-name="Path 2974" d="M29.7,8.167h-.4A2.809,2.809,0,0,0,26.5,5.5H17.94a.668.668,0,0,0-.48.213l-4.773,4.853a.625.625,0,0,0-.187.453V23.233a2.809,2.809,0,0,0,2.667,2.8v.4a2.8,2.8,0,0,0,2.8,2.8H29.7a2.8,2.8,0,0,0,2.8-2.8V10.967A2.8,2.8,0,0,0,29.7,8.167Zm-4.4,10a.66.66,0,0,1-.667.667H17.167a.667.667,0,1,1,0-1.333h7.467A.66.66,0,0,1,25.3,18.167Zm0,3.2a.66.66,0,0,1-.667.667H17.167a.667.667,0,1,1,0-1.333h7.467A.66.66,0,0,1,25.3,21.367ZM19.833,14.3a.667.667,0,1,1,0,1.333H17.167a.667.667,0,1,1,0-1.333Zm-5.28-3.733,2.747-2.8v2.4a.41.41,0,0,1-.4.4ZM31.167,26.433A1.48,1.48,0,0,1,29.7,27.9H17.967A1.48,1.48,0,0,1,16.5,26.433v-.4h10a2.8,2.8,0,0,0,2.8-2.8V9.5h.4a1.48,1.48,0,0,1,1.467,1.467Z" transform="translate(-4.041 0.5)" fill="#fff"/>
  </g>
</svg>
