<svg id="Received_Job_Offers_Inverted_Icon" data-name="Received Job Offers Inverted Icon" xmlns="http://www.w3.org/2000/svg" width="30" height="30" viewBox="0 0 30 30">
  <rect id="Rectangle_797" data-name="Rectangle 797" width="30" height="30" rx="5" fill="#229bff"/>
  <g id="Group_2181" data-name="Group 2181" transform="translate(5.969 4.969)">
    <path id="Path_3002" data-name="Path 3002" d="M8.4,15.884a1.655,1.655,0,0,1,0-2.314l4.85-4.926a1.431,1.431,0,0,1,.9-.446V3.176a.765.765,0,0,0-.765-.765h-3.9a2.412,2.412,0,0,0-4.823,0H.765A.765.765,0,0,0,0,3.176v14.37a.765.765,0,0,0,.765.765H10.792ZM7.073,1.322a1.09,1.09,0,1,1-1.09,1.09A1.09,1.09,0,0,1,7.073,1.322ZM3.04,5.87h8.067a.6.6,0,1,1,0,1.2H3.04a.6.6,0,1,1,0-1.2Zm0,3.376H8.658a.6.6,0,1,1,0,1.2H3.04a.6.6,0,1,1,0-1.2Zm3.21,4.579H3.04a.6.6,0,0,1,0-1.2H6.25a.6.6,0,0,1,0,1.2Z" fill="#fff"/>
    <path id="Path_3003" data-name="Path 3003" d="M16.664,19.886a.439.439,0,0,1,.438-.438H21.87a.44.44,0,0,0,.438-.438V15.064a.44.44,0,0,0-.438-.438H17.1a.439.439,0,0,1-.438-.438V11.926c0-.241-.139-.3-.308-.126l-4.85,4.925a.447.447,0,0,0,0,.624l4.85,4.925c.169.172.308.116.308-.126Z" transform="translate(-2.247 -2.311)" fill="#fff"/>
  </g>
</svg>
