<svg xmlns="http://www.w3.org/2000/svg" width="23.5" height="19.972" viewBox="0 0 23.5 19.972">
  <path id="Path_41" data-name="Path 41" d="M12,2.014A11.744,11.744,0,0,0,3.614,21.986,18.782,18.782,0,0,1,12,20.044a18.782,18.782,0,0,1,8.386,1.942A11.744,11.744,0,0,0,12,2.014Zm-.783,1.71a.393.393,0,0,1,.391-.392h.784a.393.393,0,0,1,.391.392V5.291a.392.392,0,0,1-.391.391h-.784a.392.392,0,0,1-.391-.391Zm-7.3,10.431a.393.393,0,0,1-.392.392H1.96a.392.392,0,0,1-.391-.392v-.783a.392.392,0,0,1,.391-.392H3.527a.393.393,0,0,1,.392.392ZM6.563,7.772l-.554.554a.392.392,0,0,1-.554,0L4.347,7.218a.392.392,0,0,1,0-.553L4.9,6.111a.392.392,0,0,1,.554,0L6.563,7.218A.394.394,0,0,1,6.563,7.772Zm7.327,6.547a.417.417,0,0,1-.043.069c-.014.042-.02.084-.037.125l0,.005a1.96,1.96,0,0,1-.183.341c-.035.052-.079.1-.118.143s-.078.1-.124.149-.1.084-.152.125-.092.082-.143.116-.088.047-.131.071a1.889,1.889,0,0,1-.2.108c-.036.015-.076.022-.113.035a1.9,1.9,0,0,1-.3.082,1.936,1.936,0,0,1-.332.033H12c-.054,0-.1-.012-.159-.016a2.03,2.03,0,0,1-.219-.022,1.928,1.928,0,0,1-.356-.107l-.015-.005h0a1.955,1.955,0,0,1-.64-.43c-.028-.029-.05-.062-.076-.092a2.1,2.1,0,0,1-.164-.2c-.017-.026-.028-.055-.044-.082a1.907,1.907,0,0,1-.134-.253c-.005-.012-.007-.026-.012-.038a1.936,1.936,0,0,1-.107-.4,2.1,2.1,0,0,1-.031-.308v-.006c0-.05.011-.1.014-.145a1.872,1.872,0,0,1,.024-.235,1.987,1.987,0,0,1,.1-.321c.007-.016.009-.033.015-.049v0c.018-.042.042-.078.062-.118a.364.364,0,0,1,.018-.074c.286-.691,4.751-6.353,4.751-6.353S14.175,13.63,13.89,14.319Zm5.763-7.1L18.545,8.326a.392.392,0,0,1-.554,0l-.554-.554a.394.394,0,0,1,0-.554l1.108-1.107a.392.392,0,0,1,.554,0l.554.554A.392.392,0,0,1,19.653,7.218Zm2.387,7.329H20.473a.393.393,0,0,1-.392-.392v-.783a.393.393,0,0,1,.392-.392H22.04a.392.392,0,0,1,.391.392v.783A.392.392,0,0,1,22.04,14.547Z" transform="translate(-0.25 -2.014)" fill="#229bff"/>
</svg>
