<svg xmlns="http://www.w3.org/2000/svg" width="20" height="18.447" viewBox="0 0 20 18.447">
  <path id="Path_2858" data-name="Path 2858" d="M19.544,3.765H18.017V2.692a.692.692,0,1,0-1.384,0V3.765H11.85V2.692a.692.692,0,1,0-1.384,0V3.765H5.683V2.692a.692.692,0,1,0-1.384,0V3.765H2.772A1.616,1.616,0,0,0,1.158,5.379V18.833a1.616,1.616,0,0,0,1.614,1.614H19.544a1.616,1.616,0,0,0,1.614-1.614V5.379A1.616,1.616,0,0,0,19.544,3.765ZM7.064,17.341A.461.461,0,0,1,6.6,17.8H3.2a.46.46,0,0,1-.461-.461v-1.8a.461.461,0,0,1,.461-.461H6.6a.461.461,0,0,1,.461.461Zm0-4.174a.461.461,0,0,1-.461.461H3.2a.461.461,0,0,1-.461-.461v-1.8A.461.461,0,0,1,3.2,10.9H6.6a.461.461,0,0,1,.461.461Zm6.257,4.174a.46.46,0,0,1-.461.461h-3.4a.461.461,0,0,1-.461-.461v-1.8a.461.461,0,0,1,.461-.461h3.4a.461.461,0,0,1,.461.461Zm0-4.174a.461.461,0,0,1-.461.461h-3.4a.461.461,0,0,1-.461-.461v-1.8a.461.461,0,0,1,.461-.461h3.4a.461.461,0,0,1,.461.461Zm6.258,0a.461.461,0,0,1-.461.461h-3.4a.461.461,0,0,1-.461-.461v-1.8a.461.461,0,0,1,.461-.461h3.4a.461.461,0,0,1,.461.461Zm.2-4.879H2.542V5.379a.231.231,0,0,1,.231-.231H4.3v.992a.692.692,0,1,0,1.384,0V5.149h4.783v.992a.692.692,0,0,0,1.384,0V5.149h4.784v.992a.692.692,0,1,0,1.384,0V5.149h1.526a.231.231,0,0,1,.231.231Z" transform="translate(-1.158 -2)" fill="#b4b6b8"/>
</svg>
