<svg xmlns="http://www.w3.org/2000/svg" width="24.624" height="27" viewBox="0 0 24.624 27">
  <g id="Logout_Blue_Icon" data-name="Logout Blue Icon" transform="translate(1 1)">
    <g id="Group_2340" data-name="Group 2340" transform="translate(23.624) rotate(90)">
      <g id="Group_2168" data-name="Group 2168" transform="translate(20 18.124) rotate(180)">
        <path id="Path_3031" data-name="Path 3031" d="M14.646.366a1.182,1.182,0,0,0-1.71,0L7.5,5.983,2.064.366a1.182,1.182,0,0,0-1.71,0,1.279,1.279,0,0,0,0,1.767l6.285,6.5.005.006a1.182,1.182,0,0,0,1.711,0l.005-.007,6.285-6.495A1.279,1.279,0,0,0,14.646.366Z" transform="translate(0 9.124)" fill="#596065"/>
        <line id="Line_342" data-name="Line 342" y2="15.624" transform="translate(7.5)" fill="none" stroke="#596065" stroke-linecap="round" stroke-width="2"/>
      </g>
      <line id="Line_343" data-name="Line 343" x1="25" transform="translate(0 23.624)" fill="none" stroke="#596065" stroke-linecap="round" stroke-width="2"/>
      <line id="Line_344" data-name="Line 344" y2="13" transform="translate(0 10.624)" fill="none" stroke="#596065" stroke-linecap="round" stroke-width="2"/>
      <line id="Line_345" data-name="Line 345" y2="13" transform="translate(25 10.624)" fill="none" stroke="#596065" stroke-linecap="round" stroke-width="2"/>
      <line id="Line_357" data-name="Line 357" x1="2.812" transform="translate(22.188 10.625)" fill="none" stroke="#596065" stroke-linecap="round" stroke-width="2"/>
      <line id="Line_358" data-name="Line 358" x1="2.812" transform="translate(0 10.625)" fill="none" stroke="#596065" stroke-linecap="round" stroke-width="2"/>
    </g>
  </g>
</svg>
