<svg id="Group_1983" data-name="Group 1983" xmlns="http://www.w3.org/2000/svg" width="24.998" height="25" viewBox="0 0 24.998 25">
  <path id="Path_3010" data-name="Path 3010" d="M10.468,19.792a2.063,2.063,0,0,1,0-2.883l6.044-6.138a1.783,1.783,0,0,1,1.116-.556V3.958a.953.953,0,0,0-.953-.953H11.819a3.005,3.005,0,1,0-6.01,0H.953A.953.953,0,0,0,0,3.958V21.864a.953.953,0,0,0,.953.953H13.447ZM8.814,1.647A1.358,1.358,0,1,1,7.456,3.005,1.358,1.358,0,0,1,8.814,1.647ZM3.788,7.315H13.84a.75.75,0,1,1,0,1.5H3.788a.75.75,0,1,1,0-1.5Zm0,4.207h7a.75.75,0,0,1,0,1.5h-7a.75.75,0,0,1,0-1.5Zm4,5.706h-4a.75.75,0,0,1,0-1.5h4a.75.75,0,0,1,0,1.5Z" transform="translate(0)" fill="#229bff"/>
  <path id="Path_3011" data-name="Path 3011" d="M17.964,21.9a.547.547,0,0,1,.546-.546h5.942A.548.548,0,0,0,25,20.808V15.892a.548.548,0,0,0-.546-.546H18.51a.547.547,0,0,1-.546-.546V11.981c0-.3-.173-.371-.384-.157l-6.043,6.137a.557.557,0,0,0,0,.778l6.043,6.137c.211.214.384.144.384-.157Z" transform="translate(0)" fill="#229bff"/>
</svg>
