<svg xmlns="http://www.w3.org/2000/svg" width="25" height="25" viewBox="0 0 25 25">
  <path id="Path_2873" data-name="Path 2873" d="M204.569-24.076l-5.076-5.076a10.794,10.794,0,0,0,2.223-6.556,10.869,10.869,0,0,0-10.857-10.857A10.87,10.87,0,0,0,180-35.708,10.871,10.871,0,0,0,190.859-24.85a10.791,10.791,0,0,0,6.555-2.223L202.49-22a1.465,1.465,0,0,0,1.039.431,1.466,1.466,0,0,0,1.04-.431A1.47,1.47,0,0,0,204.569-24.076ZM182.941-35.708a7.926,7.926,0,0,1,7.918-7.916,7.925,7.925,0,0,1,7.915,7.916,7.925,7.925,0,0,1-7.915,7.916A7.926,7.926,0,0,1,182.941-35.708Z" transform="translate(-180 46.565)" fill="#229bff"/>
</svg>
