<svg id="Group_1984" data-name="Group 1984" xmlns="http://www.w3.org/2000/svg" width="25" height="25" viewBox="0 0 25 25">
  <path id="Path_3004" data-name="Path 3004" d="M-35.119,20.808V15.892a2.049,2.049,0,0,1,2.046-2.046h4.988V11.981a1.733,1.733,0,0,1,.713-1.468V3.958a.953.953,0,0,0-.953-.953h-4.856A3,3,0,0,0-36.186,0a3,3,0,0,0-3.005,3.005h-4.856A.953.953,0,0,0-45,3.958V21.864a.953.953,0,0,0,.953.953h10.6A2.048,2.048,0,0,1-35.119,20.808ZM-36.186,1.647a1.358,1.358,0,0,1,1.358,1.358,1.358,1.358,0,0,1-1.358,1.358,1.358,1.358,0,0,1-1.358-1.358A1.358,1.358,0,0,1-36.186,1.647Zm-5.026,5.668H-31.16a.75.75,0,0,1,.75.75.75.75,0,0,1-.75.75H-41.212a.75.75,0,0,1-.75-.75A.75.75,0,0,1-41.212,7.315Zm0,4.207h7a.75.75,0,0,1,.75.75.75.75,0,0,1-.75.75h-7a.75.75,0,0,1-.75-.75A.75.75,0,0,1-41.212,11.522Zm4,5.706h-4a.75.75,0,0,1-.75-.75.75.75,0,0,1,.75-.75h4a.75.75,0,0,1,.75.75A.75.75,0,0,1-37.212,17.228Z" transform="translate(45)" fill="#229bff"/>
  <path id="Path_3005" data-name="Path 3005" d="M-26.585,14.8a.548.548,0,0,1-.546.546h-5.942a.548.548,0,0,0-.546.546v4.916a.548.548,0,0,0,.546.546h5.942a.548.548,0,0,1,.546.546v2.819c0,.3.172.371.383.157l6.044-6.137a.557.557,0,0,0,0-.778L-26.2,11.824c-.211-.214-.383-.144-.383.157Z" transform="translate(45)" fill="#229bff"/>
</svg>
