<svg id="Group_1041" data-name="Group 1041" xmlns="http://www.w3.org/2000/svg" width="23" height="22.999" viewBox="0 0 23 22.999">
  <g id="Group_37" data-name="Group 37" transform="translate(3.486)">
    <g id="Group_36" data-name="Group 36">
      <path id="Path_37" data-name="Path 37" d="M492.24-253.983a3.47,3.47,0,0,0,3.471-3.47,3.471,3.471,0,0,0-3.471-3.471,3.471,3.471,0,0,0-3.471,3.471A3.47,3.47,0,0,0,492.24-253.983Z" transform="translate(-488.769 260.924)" fill="#229bff"/>
    </g>
  </g>
  <path id="Path_38" data-name="Path 38" d="M497.959-248.65a4.956,4.956,0,0,1-1.582-3.217,9.027,9.027,0,0,0-4.137-.96c-3.843,0-6.957,2.179-6.957,4.867s3.114,4.867,6.957,4.867c.223,0,.442-.009.66-.023C493.063-245.634,495.064-247.728,497.959-248.65Z" transform="translate(-485.283 260.924)" fill="#229bff"/>
  <ellipse id="Ellipse_11" data-name="Ellipse 11" cx="6.957" cy="4.867" rx="6.957" ry="4.867" transform="translate(9.085 13.265)" fill="#229bff"/>
  <g id="Group_41" data-name="Group 41" transform="translate(12.571 5.168)">
    <g id="Group_40" data-name="Group 40">
      <g id="Group_39" data-name="Group 39">
        <path id="Path_39" data-name="Path 39" d="M501.326-248.814a3.471,3.471,0,0,0,3.471-3.471,3.471,3.471,0,0,0-3.471-3.471,3.472,3.472,0,0,0-3.472,3.471A3.472,3.472,0,0,0,501.326-248.814Z" transform="translate(-497.854 255.756)" fill="#229bff"/>
      </g>
    </g>
  </g>
</svg>
